<!DOCTYPE svg PUBLIC "-//W3C//DTD SVG 1.1//EN" "http://www.w3.org/Graphics/SVG/1.1/DTD/svg11.dtd">
<!-- Uploaded to: SVG Repo, www.svgrepo.com, Transformed by: SVG Repo Mixer Tools -->
<svg fill="#f1f41f" height="800px" width="800px" version="1.1" id="Layer_1" xmlns="http://www.w3.org/2000/svg" xmlns:xlink="http://www.w3.org/1999/xlink" viewBox="0 0 511.987 511.987" xml:space="preserve">
<g id="SVGRepo_bgCarrier" stroke-width="0"/>
<g id="SVGRepo_tracerCarrier" stroke-linecap="round" stroke-linejoin="round"/>
<g id="SVGRepo_iconCarrier"> <g> <g> <path d="M510.991,185.097c-2.475-7.893-9.301-13.632-17.515-14.72l-148.843-19.84L275.087,11.316 c-7.211-14.464-30.976-14.464-38.187,0l-69.547,139.221l-148.843,19.84c-8.213,1.088-15.04,6.827-17.515,14.72 c-2.496,7.872-0.213,16.512,5.867,22.101l107.392,98.923L85.604,486.857c-1.365,8.469,2.517,16.96,9.835,21.483 c7.339,4.501,16.661,4.203,23.616-0.811l136.939-97.792l136.939,97.792c3.691,2.667,8.043,3.989,12.395,3.989 c3.883,0,7.765-1.067,11.221-3.179c7.317-4.523,11.2-13.013,9.835-21.483l-28.651-180.736l107.392-98.923 C511.204,201.609,513.487,192.969,510.991,185.097z"/> </g> </g> </g>
</svg>